<svg width="48" height="55" viewBox="0 0 48 55" fill="none" xmlns="http://www.w3.org/2000/svg">
<path d="M0.33699 26.9401C1.673 35.2334 5.30267 42.7083 9.96052 49.6594C11.0654 51.3094 12.4139 52.8025 13.7131 54.3141C14.4148 55.133 15.1693 55.333 15.9788 54.2773C17.5827 52.1748 19.2421 50.1185 20.9445 48.0958C21.2891 47.6864 21.8928 47.3755 22.422 47.277C23.1641 47.1417 23.958 47.3107 24.7187 47.2309C25.6453 47.1324 26.2242 47.4802 26.7569 48.2316C28.1022 50.1247 29.5185 51.969 30.9375 53.8098C31.904 55.066 33.083 55.1121 34.1391 53.9637C34.761 53.2864 35.3829 52.6029 35.9462 51.8763C39.9542 46.7013 43.0144 40.9753 45.0339 34.7907C46.5855 30.0499 47.7614 25.2045 46.9887 20.0325C45.2863 8.62986 35.1673 -0.236068 23.4688 0.00700416C17.9677 -0.128282 12.8357 1.69698 8.46749 5.41891C1.83934 11.0677 -1.04205 18.3696 0.33699 26.9401ZM14.2489 28.1071C14.4245 28.1071 14.3629 28.1196 14.252 28.1102C14.2489 28.1102 14.2489 28.1071 14.2489 28.1071Z" fill="#080909"/>
</svg>
