<svg version="1.1" id="Layer_1" xmlns="http://www.w3.org/2000/svg" xmlns:xlink="http://www.w3.org/1999/xlink" x="0px" y="0px"
	 viewBox="0 0 514 588.9" style="enable-background:new 0 0 514 588.9;" xml:space="preserve">
<style type="text/css">
	.st0{fill:#080909;}
	.st1{fill:#FFFFFF;}
</style>
<g>
	<path class="st0" d="M51.2,281.8c12.2,75.5,45.2,143.6,87.6,206.9c10.1,15,22.3,28.6,34.2,42.4c6.4,7.5,13.3,9.3,20.6-0.3
		c14.6-19.1,29.7-37.9,45.2-56.3c3.1-3.7,8.6-6.6,13.5-7.5c6.8-1.2,14,0.3,20.9-0.4c8.4-0.9,13.7,2.3,18.6,9.1
		c12.2,17.2,25.1,34,38.1,50.8c8.8,11.4,19.5,11.9,29.2,1.4c5.7-6.2,11.3-12.4,16.5-19c36.5-47.1,64.4-99.3,82.7-155.6
		C472.3,310.1,483,266,476,218.9C460.5,115.1,368.3,34.3,261.8,36.5c-50.1-1.2-96.8,15.4-136.6,49.3
		C64.9,137.2,38.7,203.7,51.2,281.8z M177.9,292.4C179.5,292.4,178.9,292.5,177.9,292.4C177.9,292.4,177.9,292.4,177.9,292.4z"/>
	<path class="st1" d="M189.5,281.3c24.8,0,45-20.1,45-45s-20.1-45-45-45s-45,20.1-45,45S164.6,281.3,189.5,281.3z"/>
	<path class="st1" d="M336.9,281.3c24.8,0,45-20.1,45-45s-20.1-45-45-45c-24.8,0-45,20.1-45,45S312,281.3,336.9,281.3z"/>
</g>
</svg>
