<svg width="21" height="16" viewBox="0 0 21 16" fill="none" xmlns="http://www.w3.org/2000/svg">
<path d="M17.7088 1.34C16.3708 0.714 14.9402 0.259052 13.4445 0C13.2609 0.332095 13.0463 0.77877 12.8983 1.1341C11.3084 0.894993 9.73307 0.894993 8.17238 1.1341C8.02445 0.77877 7.80498 0.332095 7.61966 0C6.12238 0.259052 4.69013 0.715671 3.35218 1.34331C0.653505 5.42136 -0.0780596 9.39811 0.287724 13.3184C2.07762 14.655 3.81225 15.467 5.51761 15.9984C5.93867 15.4189 6.3142 14.8028 6.63771 14.1536C6.02157 13.9195 5.43145 13.6306 4.87385 13.2952C5.02177 13.1856 5.16647 13.071 5.30627 12.9531C8.70723 14.5438 12.4025 14.5438 15.7628 12.9531C15.9042 13.071 16.0489 13.1856 16.1952 13.2952C15.636 13.6322 15.0442 13.9211 14.4281 14.1553C14.7516 14.8028 15.1255 15.4205 15.5482 16C17.2552 15.4687 18.9914 14.6567 20.7813 13.3184C21.2105 8.77378 20.0482 4.83355 17.7088 1.34ZM7.10104 10.9075C6.08011 10.9075 5.24286 9.95435 5.24286 8.7937C5.24286 7.63306 6.06223 6.67831 7.10104 6.67831C8.13988 6.67831 8.97711 7.63138 8.95923 8.7937C8.96084 9.95435 8.13988 10.9075 7.10104 10.9075ZM13.968 10.9075C12.9471 10.9075 12.1098 9.95435 12.1098 8.7937C12.1098 7.63306 12.9292 6.67831 13.968 6.67831C15.0068 6.67831 15.8441 7.63138 15.8262 8.7937C15.8262 9.95435 15.0068 10.9075 13.968 10.9075Z" fill="#23272A"/>
</svg>
