<svg width="28" height="16" viewBox="0 0 28 16" fill="none" xmlns="http://www.w3.org/2000/svg">
<path d="M19.7451 4.07354L21.3054 5.90687C21.484 6.11278 21.6424 6.28217 21.7065 6.37848C22.1731 6.84224 22.4348 7.46901 22.4344 8.12214C22.3906 8.89268 21.8884 9.41743 21.4234 9.97872L20.3315 11.2607L19.7619 11.925C19.7415 11.9479 19.7283 11.9762 19.724 12.0064C19.7197 12.0366 19.7245 12.0674 19.7378 12.0949C19.751 12.1225 19.7722 12.1456 19.7986 12.1615C19.8251 12.1773 19.8557 12.1851 19.8866 12.184H25.5787C26.4482 12.184 27.5435 12.9147 27.4794 14.024C27.4776 14.5282 27.2736 15.0113 26.9119 15.3677C26.5501 15.7243 26.06 15.9253 25.5484 15.9271H16.6345C16.0481 15.9271 14.4709 15.9902 14.0294 14.6451C13.9355 14.364 13.9226 14.0628 13.9923 13.7749C14.1206 13.3493 14.3236 12.9491 14.5922 12.5925C15.0404 11.9283 15.5257 11.264 16.0042 10.6197C16.621 9.77611 17.2546 8.9591 17.878 8.09888C17.9002 8.07088 17.9122 8.0364 17.9122 8.00091C17.9122 7.96543 17.9002 7.93095 17.878 7.90295L15.6133 5.24593C15.5986 5.22668 15.5794 5.21105 15.5575 5.2003C15.5356 5.18955 15.5114 5.18395 15.4869 5.18395C15.4624 5.18395 15.4383 5.18955 15.4164 5.2003C15.3944 5.21105 15.3753 5.22668 15.3606 5.24593C14.7539 6.053 12.0983 9.62668 11.5321 10.3507C10.966 11.0747 9.57073 11.1146 8.79898 10.3507L5.25701 6.84679C5.23439 6.82441 5.20551 6.80915 5.1741 6.80298C5.14266 6.79678 5.11007 6.79995 5.08048 6.81205C5.05086 6.82414 5.02555 6.84463 5.00779 6.87092C4.99003 6.89721 4.98059 6.92811 4.98066 6.95969V13.6985C4.98898 14.1768 4.84532 14.6455 4.56971 15.0392C4.29414 15.4329 3.90048 15.7317 3.44389 15.8939C3.15215 15.9939 2.84038 16.0238 2.53451 15.981C2.22867 15.9382 1.93766 15.824 1.68572 15.6478C1.43377 15.4717 1.22819 15.2387 1.08614 14.9684C0.944125 14.6981 0.869714 14.3982 0.869141 14.0937V1.97781C0.889462 1.54118 1.04887 1.12197 1.32474 0.77974C1.60062 0.437506 1.97891 0.189669 2.40591 0.0714125C2.77217 -0.0247431 3.15771 -0.0237793 3.52346 0.0742096C3.88922 0.172178 4.22218 0.363735 4.48862 0.6294L9.9347 6.00319C9.95101 6.0195 9.97073 6.0321 9.99253 6.04006C10.0143 6.04801 10.0376 6.05118 10.0608 6.04926C10.0839 6.04737 10.1064 6.04046 10.1265 6.02907C10.1467 6.01765 10.164 6.00201 10.1773 5.98324L14.0462 0.705766C14.225 0.491529 14.4491 0.318407 14.703 0.198499C14.9568 0.0785908 15.2341 0.0148287 15.5156 0.0116271H25.5787C25.8541 0.0120989 26.1262 0.0704689 26.3769 0.182895C26.6275 0.295355 26.8509 0.459243 27.0321 0.663606C27.2134 0.867969 27.3482 1.10812 27.4277 1.36799C27.5071 1.62786 27.5294 1.90144 27.4929 2.17044C27.422 2.6371 27.1817 3.06261 26.8167 3.36797C26.4517 3.67334 25.9867 3.8379 25.5079 3.83109H19.8731C19.8448 3.83177 19.8172 3.83992 19.7931 3.85468C19.7691 3.86945 19.7495 3.89031 19.7365 3.91504C19.7234 3.93981 19.7173 3.96758 19.7188 3.99545C19.7203 4.02332 19.7294 4.05028 19.7451 4.07354Z" fill="#23272A"/>
</svg>
