<svg width="20" height="16" viewBox="0 0 20 16" fill="none" xmlns="http://www.w3.org/2000/svg">
<path d="M19.1991 1.89937C18.48 2.22538 17.7174 2.43949 16.9366 2.53461C17.7596 2.03012 18.3755 1.23616 18.6697 0.300674C17.8973 0.771788 17.0506 1.10195 16.168 1.28055C15.5751 0.630434 14.7893 0.199271 13.9328 0.0540959C13.0762 -0.0910793 12.1968 0.0578671 11.4313 0.477779C10.6659 0.897691 10.0572 1.56504 9.69995 2.37608C9.34271 3.18712 9.25691 4.09641 9.45589 4.96259C7.88958 4.88212 6.3573 4.46495 4.95851 3.73814C3.55973 3.01133 2.32571 1.99113 1.33658 0.743792C0.986458 1.36015 0.802469 2.06082 0.803454 2.77403C0.803454 4.17386 1.49859 5.41053 2.55542 6.13458C1.92999 6.1144 1.31834 5.94129 0.771429 5.62968V5.67988C0.771617 6.61216 1.08638 7.5157 1.66234 8.23728C2.2383 8.95886 3.04001 9.45408 3.93155 9.63898C3.35097 9.80024 2.7422 9.82401 2.15133 9.70849C2.4027 10.511 2.89263 11.2128 3.55252 11.7157C4.21241 12.2185 5.00923 12.4973 5.8314 12.513C5.01427 13.1707 4.07866 13.657 3.07807 13.9439C2.07747 14.2308 1.03152 14.3127 0 14.185C1.80066 15.3719 3.89679 16.002 6.03768 16C13.2838 16 17.2465 9.84751 17.2465 4.51175C17.2465 4.33797 17.2418 4.16227 17.2342 3.99043C18.0055 3.41908 18.6712 2.71129 19.2 1.90034L19.1991 1.89937Z" fill="#23272A"/>
</svg>
